<svg version="1.2" xmlns="http://www.w3.org/2000/svg" viewBox="6 -12 102 102" width="400" height="400"><style>.a{fill:#24292f}.b{fill:#e3b341}.c{fill:#3fb950}</style><path fill-rule="evenodd" class="a" d="m44.9 67.5c0.4-3.2 1.7-5.4 3.1-6.6-10.9-1.1-22.3-5.4-22.3-24.3 0-5.4 2-9.8 5-13.2-0.5-1.2-2.2-6.3 0.5-13 0 0 4.1-1.3 13.4 5q1.5-0.4 3-0.7 1.6-0.3 3.1-0.5 1.5-0.2 3.1-0.3 1.5-0.1 3.1-0.1c4.1 0 8.3 0.6 12.2 1.6 9.3-6.3 13.4-5 13.4-5 2.7 6.7 1 11.8 0.5 13 3.1 3.4 5 7.8 5 13.2 0 18.9-11.4 23.1-22.3 24.3 1.8 1.5 3.3 4.5 3.3 9.1 0 6.6-0.1 11.9-0.1 13.5 0 1.3 0.9 2.9 3.3 2.4 19.4-6.5 33.4-24.9 33.4-46.7 0.1-27.2-21.8-49.2-48.7-49.2-27.1 0-48.9 22-48.9 49.2 0 21.8 14 40.2 33.4 46.7 2.4 0.5 3.3-1.1 3.3-2.4 0-1.1-0.1-5-0.1-9.1"/><path class="b" d="m59.7 16.4l5 10.2c0.4 0.8 1.1 1.2 1.9 1.4l11.3 1.6c2 0.3 2.8 2.7 1.4 4.1l-8.2 8c-0.6 0.6-0.9 1.4-0.7 2.2l1.9 11.3c0.3 2-1.7 3.5-3.5 2.6l-10.2-5.4c-0.7-0.4-1.5-0.4-2.2 0l-10.2 5.4c-1.8 0.9-3.8-0.6-3.5-2.6l1.9-11.3c0.2-0.8-0.1-1.6-0.7-2.2l-8.2-8c-1.4-1.4-0.6-3.8 1.4-4.1l11.3-1.6c0.8-0.2 1.5-0.6 1.9-1.4l5-10.2c0.9-1.9 3.5-1.9 4.4 0z"/><path class="c" d="m57.1 46.3c2.2 0 4.3-0.9 5.8-2.4 1.5-1.5 2.4-3.6 2.4-5.8 0-2.1-0.9-4.2-2.4-5.7-1.5-1.5-3.6-2.4-5.8-2.4-2.1 0-4.2 0.9-5.7 2.4-1.5 1.5-2.4 3.6-2.4 5.7 0 2.2 0.9 4.3 2.4 5.8 1.5 1.5 3.6 2.4 5.7 2.4z"/><path class="c" d="m57-10c13 0 25.5 5.2 34.6 14.5 9.2 9.3 14.4 21.9 14.4 35 0 13.1-5.2 25.7-14.4 35-9.1 9.3-21.6 14.5-34.6 14.5-13 0-25.5-5.2-34.6-14.5-9.2-9.3-14.4-21.9-14.4-35 0-13.1 5.2-25.7 14.4-35 9.1-9.3 21.6-14.5 34.6-14.5zm-39.8 49.5c0 10.7 4.2 20.9 11.6 28.4 7.5 7.6 17.6 11.8 28.2 11.8 10.6 0 20.7-4.2 28.2-11.8 7.4-7.5 11.6-17.7 11.6-28.4 0-10.7-4.2-20.9-11.6-28.4-7.5-7.6-17.6-11.8-28.2-11.8-10.6 0-20.7 4.2-28.2 11.8-7.4 7.5-11.6 17.7-11.6 28.4z"/></svg>